<svg
   xmlns="http://www.w3.org/2000/svg"
   height="256"
   width="256">
  <path
     d="m 43.250389,41.935843 0,122.164547 -17.156545,18.19472 -19.4943434,-20.4056 -5.5868552,5.84831 19.4943426,20.27361 -19.4943426,20.40559 5.5868552,5.84831 19.4943434,-20.27361 19.494343,20.27361 5.589394,-5.84831 -19.364889,-20.66451 19.494344,-20.14415 0,-112.417379 59.782654,0 0,109.168319 -16.8951,17.80382 -19.494343,-20.40306 -5.718849,5.8483 19.494344,20.27361 -19.494344,20.4056 5.589395,5.8483 19.494342,-20.27614 19.232895,20.27614 5.58939,-5.8483 -19.494338,-20.27614 19.494338,-20.14416 0,-112.676289 60.17356,0 0,109.168319 -17.286,17.67437 -19.10344,-20.27361 -5.58939,5.8483 19.49434,20.27361 -19.49434,20.4056 5.4574,5.8483 19.49434,-20.27614 19.49434,20.27614 5.45994,-5.8483 -19.49434,-20.27614 19.49434,-20.14416 0,-112.676289 60.04156,0 0,109.168319 -17.154,17.80382 -19.49435,-20.27361 -5.58939,5.84831 19.49434,20.27361 -19.49434,20.40559 5.71885,5.84831 19.49434,-20.27361 19.49434,20.27361 5.5894,-5.84831 -19.49435,-20.27361 19.49435,-20.14415 0,-126.063417 -211.838531,0 z" />
</svg>
