<?xml version="1.0" encoding="utf-8"?>
<!-- Generator: Adobe Illustrator 16.0.0, SVG Export Plug-In . SVG Version: 6.00 Build 0)  -->
<!DOCTYPE svg PUBLIC "-//W3C//DTD SVG 1.1//EN" "http://www.w3.org/Graphics/SVG/1.1/DTD/svg11.dtd">
<svg version="1.1" id="Ebene_1" xmlns="http://www.w3.org/2000/svg" xmlns:xlink="http://www.w3.org/1999/xlink" x="0px" y="0px"
	 width="256px" height="256px" viewBox="0 0 256 256" enable-background="new 0 0 256 256" xml:space="preserve">
<path d="M253.657,19.742c-3.125-3.125-8.189-3.125-11.314,0l-49.311,49.31c-14.363-10.066-31.437-16.131-48.828-18.261
	c-22.159-2.713-45.343,0.185-65.605,9.768c-5.292,2.503-10.4,5.499-15.205,8.92L13.657,19.742c-3.125-3.125-8.189-3.125-11.314,0
	c-3.124,3.124-3.124,8.189,0,11.313l48.835,48.835c-6.828,6.975-12.448,15.076-16.177,24.188c-3.532,8.63-5.027,17.734-5.026,26.99
	c0,4.682,0.001,9.363,0.003,14.045c0.002,5.295-0.001,10.59,0.01,15.885c0.018,8.279,1.832,16.581,5.009,24.211
	c8.166,19.606,25.184,34.385,44.216,43.094c20.475,9.37,43.837,12.089,66.083,9.197c21.6-2.808,42.761-11.609,58.696-26.68
	c13.61-12.872,22.97-30.689,23.016-49.699c0.024-9.997,0.013-19.994,0.014-29.991c0-0.063-0.017-0.146-0.022-0.174
	c0.441-19.554-8.075-37.87-21.663-51.583l48.319-48.319C256.781,27.931,256.781,22.866,253.657,19.742z M217.015,128.535
	c0.293,16.657-7.11,32.311-18.703,44.027c-12.929,13.066-30.31,21.227-48.24,24.662c-6.772,1.298-13.67,1.934-20.565,1.934
	c-10.152,0-20.184-1.001-30.01-3.64c-9.003-2.417-17.697-6.06-25.633-10.963c-14.266-8.813-26.258-21.992-31.314-38.202
	c-4.914-15.754-2.493-32.834,5.995-46.908c2.743-4.548,6.021-8.711,9.699-12.492l29.286,29.286
	c-1.422,5.336-0.055,11.26,4.132,15.444c6.248,6.25,16.379,6.25,22.627,0c6.248-6.247,6.248-16.377,0-22.626
	c-4.186-4.186-10.11-5.553-15.445-4.131L70.569,76.654c5.646-3.847,11.75-7.037,18.063-9.53c9.08-3.586,18.682-5.811,28.396-6.732
	c10.186-0.966,20.611-0.682,30.703,1.02c13.49,2.274,26.721,7.188,38.113,14.829l-28.688,28.687
	c-5.335-1.421-11.26-0.054-15.445,4.131c-6.248,6.249-6.248,16.379,0,22.626c6.249,6.25,16.38,6.25,22.628,0
	c4.187-4.185,5.554-10.109,4.132-15.445l29.781-29.781C209.37,97.705,216.733,112.537,217.015,128.535z"/>
</svg>
