<?xml version="1.0" encoding="utf-8"?>
<!-- Generator: Adobe Illustrator 16.0.0, SVG Export Plug-In . SVG Version: 6.00 Build 0)  -->
<!DOCTYPE svg PUBLIC "-//W3C//DTD SVG 1.1//EN" "http://www.w3.org/Graphics/SVG/1.1/DTD/svg11.dtd">
<svg version="1.1" id="Ebene_1" xmlns="http://www.w3.org/2000/svg" xmlns:xlink="http://www.w3.org/1999/xlink" x="0px" y="0px"
	 width="256px" height="256px" viewBox="0 0 256 256" enable-background="new 0 0 256 256" xml:space="preserve">
<path d="M162.072,59.395l-17.007,47.014h-8.503V256h-17.007V106.409h-8.503L94.045,59.395h25.51V0h17.007v59.395H162.072z
	 M74.833,79.499c0,0-1.492,0.48-4.111,1.325c-1.295,0.419-2.876,0.929-4.686,1.515c-1.797,0.598-3.755,1.506-5.915,2.374
	c-2.162,0.865-4.478,1.844-6.821,3.112c-2.349,1.24-4.901,2.367-7.329,3.938c-2.446,1.52-5.052,2.925-7.47,4.725
	c-2.461,1.72-4.972,3.426-7.297,5.379l-3.529,2.837c-1.118,1.001-2.231,2.001-3.336,2.993c-2.244,1.927-4.231,4.07-6.23,6.028
	c-3.862,4.073-7.269,8.014-9.934,11.581C2.745,132.363,0,137.59,0,137.59s3.586-4.694,10-10.63c3.158-3.01,7.087-6.249,11.401-9.494
	c2.225-1.542,4.423-3.246,6.854-4.7c1.189-0.753,2.388-1.512,3.592-2.273l3.736-2.084c2.449-1.445,5.039-2.625,7.551-3.814
	c2.467-1.276,5.077-2.142,7.504-3.142c2.408-1.046,4.892-1.659,7.158-2.412c2.261-0.781,4.463-1.291,6.497-1.728
	c2.031-0.435,3.85-0.954,5.517-1.202c1.661-0.239,3.109-0.447,4.302-0.62c2.371-0.343,3.725-0.542,3.725-0.542l0.6-0.086
	c0.409-0.062,0.823-0.157,1.229-0.289c4.161-1.334,6.456-5.792,5.122-9.955C83.453,80.459,78.999,78.165,74.833,79.499z
	 M247.799,125.434c-2.669-3.578-6.086-7.53-9.962-11.616c-2-1.964-3.993-4.114-6.249-6.046c-1.11-0.995-2.227-1.995-3.346-3.003
	l-3.54-2.845c-2.334-1.957-4.844-3.671-7.315-5.396c-2.426-1.802-5.041-3.211-7.492-4.738c-2.437-1.573-4.994-2.703-7.352-3.95
	c-2.348-1.272-4.671-2.254-6.837-3.122c-2.168-0.87-4.132-1.783-5.938-2.382c-1.81-0.588-3.397-1.098-4.699-1.519
	c-2.623-0.838-4.126-1.32-4.126-1.32c-0.395-0.126-0.848-0.233-1.273-0.296c-4.338-0.632-8.369,2.372-8.999,6.709
	c-0.636,4.341,2.367,8.369,6.703,9l0.561,0.083c0,0,1.357,0.2,3.733,0.543c1.196,0.174,2.648,0.382,4.314,0.623
	c1.671,0.249,3.496,0.769,5.534,1.206c2.037,0.435,4.245,0.95,6.514,1.732c2.271,0.755,4.762,1.37,7.18,2.422
	c2.434,1.004,5.055,1.874,7.527,3.152c2.516,1.193,5.118,2.374,7.573,3.822l3.748,2.09c1.209,0.764,2.411,1.525,3.602,2.28
	c2.438,1.458,4.644,3.167,6.877,4.713c4.331,3.255,8.269,6.5,11.435,9.519c6.435,5.957,10.029,10.665,10.029,10.665
	S253.247,132.521,247.799,125.434z"/>
</svg>
