<?xml version="1.0" encoding="utf-8"?>
<!-- Generator: Adobe Illustrator 16.0.0, SVG Export Plug-In . SVG Version: 6.00 Build 0)  -->
<!DOCTYPE svg PUBLIC "-//W3C//DTD SVG 1.1//EN" "http://www.w3.org/Graphics/SVG/1.1/DTD/svg11.dtd">
<svg version="1.1" id="Ebene_1" xmlns="http://www.w3.org/2000/svg" xmlns:xlink="http://www.w3.org/1999/xlink" x="0px" y="0px"
	 width="256px" height="256px" viewBox="0 0 256 256" enable-background="new 0 0 256 256" xml:space="preserve">
<g>
	<path d="M63.5,94.815V14.609c0-2.545-2.239-4.609-5-4.609s-5,2.064-5,4.609v80.206c-5.666,1.973-9.75,7.355-9.75,13.685v39
		c0,6.33,4.084,11.711,9.75,13.685v80.206c0,2.546,2.239,4.609,5,4.609s5-2.063,5-4.609v-80.206c5.666-1.974,9.75-7.354,9.75-13.685
		v-39C73.25,102.17,69.166,96.789,63.5,94.815z M68.25,147.5c0,5.238-4.262,9.5-9.5,9.5h-0.5c-5.238,0-9.5-4.262-9.5-9.5v-39
		c0-5.238,4.262-9.5,9.5-9.5h0.5c5.238,0,9.5,4.262,9.5,9.5V147.5z"/>
	<path d="M132.334,56.315V14.609c0-2.545-2.238-4.609-5-4.609s-5,2.064-5,4.609v41.706c-5.666,1.973-9.75,7.355-9.75,13.685v39
		c0,6.33,4.084,11.711,9.75,13.685v118.706c0,2.546,2.239,4.609,5,4.609s5-2.063,5-4.609V122.685
		c5.666-1.973,9.75-7.354,9.75-13.685V70C142.084,63.67,138,58.289,132.334,56.315z M137.084,109c0,5.238-4.262,9.5-9.5,9.5h-0.5
		c-5.238,0-9.5-4.262-9.5-9.5V70c0-5.238,4.262-9.5,9.5-9.5h0.5c5.238,0,9.5,4.262,9.5,9.5V109z"/>
	<path d="M201.168,114.315V14.609c0-2.545-2.238-4.609-4.999-4.609s-5,2.064-5,4.609v99.706c-5.666,1.973-9.75,7.355-9.75,13.685v39
		c0,6.33,4.084,11.711,9.75,13.685v60.706c0,2.546,2.239,4.609,5,4.609s4.999-2.063,4.999-4.609v-60.706
		c5.666-1.973,9.75-7.354,9.75-13.685v-39C210.918,121.67,206.834,116.288,201.168,114.315z M205.918,167
		c0,5.238-4.262,9.5-9.499,9.5h-0.5c-5.238,0-9.5-4.262-9.5-9.5v-39c0-5.238,4.262-9.5,9.5-9.5h0.5c5.237,0,9.499,4.262,9.499,9.5
		V167z"/>
</g>
</svg>
