<svg
   xmlns="http://www.w3.org/2000/svg"
   height="256"
   width="256">
  <path
     d="m 0,0 0,248 0,8 256,0 0,-8 0,-248 -8,0 0,0.34765625 -240,0 L 8,0 0,0 Z m 9.2578125,7.6738281 38.7421875,0 0,120.6679719 12,0 L 60,248 8,248 8,7.8417969 C 8.4051087,7.7950789 8.8173486,7.7425188 9.2578125,7.6738281 Z m 70.7421875,0 32,0 0,120.6679719 12,0 0,119.6582 -56,0 0,-119.6582 12,0 0,-120.6679719 z m 64,0 32,0 0,120.6679719 12,0 0,119.6582 -56,0 0,-119.6582 12,0 0,-120.6679719 z m 64,0 40,0 L 248,248 l -52,0 0,-119.6582 12,0 0,-120.6679719 z" />
</svg>
