<?xml version="1.0" encoding="utf-8"?>
<!-- Generator: Adobe Illustrator 16.0.0, SVG Export Plug-In . SVG Version: 6.00 Build 0)  -->
<!DOCTYPE svg PUBLIC "-//W3C//DTD SVG 1.1//EN" "http://www.w3.org/Graphics/SVG/1.1/DTD/svg11.dtd">
<svg version="1.1" id="Ebene_1" xmlns="http://www.w3.org/2000/svg" xmlns:xlink="http://www.w3.org/1999/xlink" x="0px" y="0px"
	 width="256px" height="256px" viewBox="0 0 256 256" enable-background="new 0 0 256 256" xml:space="preserve">
<path d="M66.321,44.324c-2.563,0-4.641,2.125-4.641,4.748V128v78.928c0,2.623,2.078,4.748,4.641,4.748s4.641-2.125,4.641-4.748V128
	V49.072C70.961,46.449,68.884,44.324,66.321,44.324z M97.161,9.08c-2.563,0-4.641,2.125-4.641,4.747V128v114.174
	c0,2.621,2.078,4.746,4.641,4.746s4.641-2.125,4.641-4.746V128V13.827C101.801,11.205,99.724,9.08,97.161,9.08z M4.641,98.235
	C2.078,98.235,0,100.36,0,102.983V128v25.018c0,2.621,2.078,4.748,4.641,4.748s4.641-2.127,4.641-4.748V128v-25.017
	C9.282,100.361,7.204,98.235,4.641,98.235z M35.481,79.513c-2.563,0-4.641,2.125-4.641,4.748V128v43.739
	c0,2.622,2.078,4.747,4.641,4.747s4.641-2.125,4.641-4.747V128V84.261C40.122,81.639,38.044,79.513,35.481,79.513z M128,0
	c-2.563,0-4.642,2.125-4.642,4.747V128v123.253c0,2.622,2.078,4.747,4.642,4.747c2.564,0,4.641-2.125,4.641-4.747V128V4.747
	C132.641,2.125,130.564,0,128,0z M220.521,67.353c-2.563,0-4.642,2.125-4.642,4.748V128v55.9c0,2.621,2.078,4.746,4.642,4.746
	s4.641-2.125,4.641-4.746V128V72.1C225.161,69.478,223.085,67.353,220.521,67.353z M251.359,95.303
	c-2.563,0-4.641,2.125-4.641,4.747V128v27.95c0,2.622,2.078,4.747,4.641,4.747c2.564,0,4.642-2.125,4.642-4.747V128v-27.95
	C256.001,97.428,253.925,95.303,251.359,95.303z M158.84,37.846c-2.563,0-4.641,2.125-4.641,4.747V128v85.406
	c0,2.623,2.078,4.748,4.641,4.748c2.564,0,4.641-2.125,4.641-4.748V128V42.593C163.48,39.971,161.404,37.846,158.84,37.846z
	 M189.68,87.539c-2.563,0-4.641,2.125-4.641,4.747V128v35.714c0,2.622,2.078,4.747,4.641,4.747c2.564,0,4.641-2.125,4.641-4.747V128
	V92.286C194.32,89.664,192.244,87.539,189.68,87.539z"/>
</svg>
