<svg
   xmlns="http://www.w3.org/2000/svg"
   width="256"
   height="256">
  <path
     id="path4236"
     d="m 25,52.443026 0,15 -25,0 0,10 25,0 0,15 99,0 0,-15 14,0 0,15 93,0 0,-15 25,0 0,-10 -25,0 0,-15 -93,0 0,15 -14,0 0,-15 -99,0 z m 5.5,61.500004 0,15 -30.5,0 0,10 30.5,0 0,15 93.5,0 0,-15 14,0 0,15 23.3,0 0,-15 11.6,0 0,15 58,0 0,-15 25,0 0,-10 -25,0 0,-15 -58,0 0,15 -11.7,0 0,-15 -23.2,0 0,15 -14,0 0,-15 -93.5,0 z m -5,62 0,14.5 -25.5,0 0,10 25.5,0 0,15.5 26,0 0,-15.5 25.8,0 0,15.5 153.7,0 0,-15.5 25,0 0,-10 -25,0 0,-14.5 -153.8,0 0,14.5 -25.7,0 0,-14.5 -26,0 z" />
</svg>
