<?xml version="1.0" encoding="UTF-8" standalone="no"?>
<!DOCTYPE svg PUBLIC "-//W3C//DTD SVG 1.1//EN"
 "http://www.w3.org/Graphics/SVG/1.1/DTD/svg11.dtd">
<!-- Generated by graphviz version 2.38.0 (20140413.2041)
 -->
<!-- Title: G Pages: 1 -->
<svg width="2158pt" height="1539pt"
 viewBox="0.00 0.00 2157.88 1539.47" xmlns="http://www.w3.org/2000/svg" xmlns:xlink="http://www.w3.org/1999/xlink">
<g id="graph0" class="graph" transform="scale(1 1) rotate(0) translate(7.992 1531.48)">
<title>G</title>
<polygon fill="#000000" stroke="none" points="-7.992,7.992 -7.992,-1531.48 2149.89,-1531.48 2149.89,7.992 -7.992,7.992"/>
<!-- Chrome/Content/index -->
<g id="node1" class="node"><title>Chrome/Content/index</title>
<ellipse fill="none" stroke="#c6c5fe" cx="1622.39" cy="-973.664" rx="102.882" ry="18"/>
<text text-anchor="middle" x="1622.39" y="-969.964" font-family="Arial" font-size="14.00" fill="#c6c5fe">Chrome/Content/index</text>
</g>
<!-- Chrome/Content/layouts -->
<g id="node2" class="node"><title>Chrome/Content/layouts</title>
<ellipse fill="none" stroke="#cfffac" cx="1401.84" cy="-973.622" rx="109.681" ry="18"/>
<text text-anchor="middle" x="1401.84" y="-969.922" font-family="Arial" font-size="14.00" fill="#cfffac">Chrome/Content/layouts</text>
</g>
<!-- Chrome/Content/index&#45;&gt;Chrome/Content/layouts -->
<g id="edge1" class="edge"><title>Chrome/Content/index&#45;&gt;Chrome/Content/layouts</title>
<path fill="none" stroke="#757575" d="M1519.54,-973.645C1519.38,-973.645 1519.22,-973.645 1519.06,-973.645"/>
<polygon fill="#757575" stroke="#757575" points="1521.78,-970.145 1511.78,-973.643 1521.78,-977.145 1521.78,-970.145"/>
</g>
<!-- Chrome/ContextMenu -->
<g id="node3" class="node"><title>Chrome/ContextMenu</title>
<ellipse fill="none" stroke="#cfffac" cx="2004.96" cy="-778" rx="100.983" ry="18"/>
<text text-anchor="middle" x="2004.96" y="-774.3" font-family="Arial" font-size="14.00" fill="#cfffac">Chrome/ContextMenu</text>
</g>
<!-- Chrome/ToolBar -->
<g id="node4" class="node"><title>Chrome/ToolBar</title>
<ellipse fill="none" stroke="#cfffac" cx="2005" cy="-1169.24" rx="79.0865" ry="18"/>
<text text-anchor="middle" x="2005" y="-1165.54" font-family="Arial" font-size="14.00" fill="#cfffac">Chrome/ToolBar</text>
</g>
<!-- Chrome/index -->
<g id="node5" class="node"><title>Chrome/index</title>
<ellipse fill="none" stroke="#c6c5fe" cx="1878.16" cy="-973.627" rx="68.4888" ry="18"/>
<text text-anchor="middle" x="1878.16" y="-969.927" font-family="Arial" font-size="14.00" fill="#c6c5fe">Chrome/index</text>
</g>
<!-- Chrome/index&#45;&gt;Chrome/Content/index -->
<g id="edge2" class="edge"><title>Chrome/index&#45;&gt;Chrome/Content/index</title>
<path fill="none" stroke="#757575" d="M1809.62,-973.637C1786.76,-973.64 1760.65,-973.644 1735.33,-973.648"/>
<polygon fill="#757575" stroke="#757575" points="1735.3,-970.148 1725.3,-973.649 1735.3,-977.148 1735.3,-970.148"/>
</g>
<!-- Chrome/index&#45;&gt;Chrome/ContextMenu -->
<g id="edge3" class="edge"><title>Chrome/index&#45;&gt;Chrome/ContextMenu</title>
<path fill="none" stroke="#757575" d="M1889.86,-955.573C1912.32,-920.926 1961.56,-844.966 1987.76,-804.539"/>
<polygon fill="#757575" stroke="#757575" points="1990.79,-806.305 1993.29,-796.01 1984.91,-802.497 1990.79,-806.305"/>
</g>
<!-- Chrome/index&#45;&gt;Chrome/ToolBar -->
<g id="edge4" class="edge"><title>Chrome/index&#45;&gt;Chrome/ToolBar</title>
<path fill="none" stroke="#757575" d="M1889.86,-991.679C1912.33,-1026.32 1961.58,-1102.28 1987.79,-1142.7"/>
<polygon fill="#757575" stroke="#757575" points="1984.95,-1144.75 1993.32,-1151.23 1990.82,-1140.94 1984.95,-1144.75"/>
</g>
<!-- Components/Editor/BeatEditor -->
<g id="node6" class="node"><title>Components/Editor/BeatEditor</title>
<ellipse fill="none" stroke="#cfffac" cx="1014.58" cy="-311.987" rx="136.476" ry="18"/>
<text text-anchor="middle" x="1014.58" y="-308.287" font-family="Arial" font-size="14.00" fill="#cfffac">Components/Editor/BeatEditor</text>
</g>
<!-- Components/Editor/MidiEditor -->
<g id="node7" class="node"><title>Components/Editor/MidiEditor</title>
<ellipse fill="none" stroke="#cfffac" cx="1489.29" cy="-128.271" rx="133.776" ry="18"/>
<text text-anchor="middle" x="1489.29" y="-124.571" font-family="Arial" font-size="14.00" fill="#cfffac">Components/Editor/MidiEditor</text>
</g>
<!-- Components/Editor/SampleEditor -->
<g id="node8" class="node"><title>Components/Editor/SampleEditor</title>
<ellipse fill="none" stroke="#cfffac" cx="1138.77" cy="-18" rx="149.473" ry="18"/>
<text text-anchor="middle" x="1138.77" y="-14.3" font-family="Arial" font-size="14.00" fill="#cfffac">Components/Editor/SampleEditor</text>
</g>
<!-- Components/Editor/index -->
<g id="node9" class="node"><title>Components/Editor/index</title>
<ellipse fill="none" stroke="#c6c5fe" cx="1274.14" cy="-334.018" rx="115.08" ry="18"/>
<text text-anchor="middle" x="1274.14" y="-330.318" font-family="Arial" font-size="14.00" fill="#c6c5fe">Components/Editor/index</text>
</g>
<!-- Components/Editor/index&#45;&gt;Components/Editor/BeatEditor -->
<g id="edge5" class="edge"><title>Components/Editor/index&#45;&gt;Components/Editor/BeatEditor</title>
<path fill="none" stroke="#757575" d="M1172.67,-325.406C1161.9,-324.491 1150.85,-323.553 1139.84,-322.619"/>
<polygon fill="#757575" stroke="#757575" points="1140.01,-319.121 1129.75,-321.763 1139.42,-326.096 1140.01,-319.121"/>
</g>
<!-- Components/Editor/index&#45;&gt;Components/Editor/MidiEditor -->
<g id="edge6" class="edge"><title>Components/Editor/index&#45;&gt;Components/Editor/MidiEditor</title>
<path fill="none" stroke="#757575" d="M1292.86,-316.12C1331.24,-279.412 1418.96,-195.525 1463.02,-153.393"/>
<polygon fill="#757575" stroke="#757575" points="1465.65,-155.716 1470.46,-146.275 1460.82,-150.657 1465.65,-155.716"/>
</g>
<!-- Components/Editor/index&#45;&gt;Components/Editor/SampleEditor -->
<g id="edge7" class="edge"><title>Components/Editor/index&#45;&gt;Components/Editor/SampleEditor</title>
<path fill="none" stroke="#757575" d="M1266.28,-315.662C1243.51,-262.52 1177.46,-108.325 1150.47,-45.3139"/>
<polygon fill="#757575" stroke="#757575" points="1153.64,-43.8273 1146.48,-36.0133 1147.2,-46.5836 1153.64,-43.8273"/>
</g>
<!-- Components/FileBrowser/index -->
<g id="node10" class="node"><title>Components/FileBrowser/index</title>
<ellipse fill="none" stroke="#cfffac" cx="1427.76" cy="-868.921" rx="139.976" ry="18"/>
<text text-anchor="middle" x="1427.76" y="-865.221" font-family="Arial" font-size="14.00" fill="#cfffac">Components/FileBrowser/index</text>
</g>
<!-- Components/Mixer/Channel -->
<g id="node11" class="node"><title>Components/Mixer/Channel</title>
<ellipse fill="none" stroke="#cfffac" cx="2017.76" cy="-585.686" rx="124.278" ry="18"/>
<text text-anchor="middle" x="2017.76" y="-581.986" font-family="Arial" font-size="14.00" fill="#cfffac">Components/Mixer/Channel</text>
</g>
<!-- Components/Mixer/index -->
<g id="node12" class="node"><title>Components/Mixer/index</title>
<ellipse fill="none" stroke="#c6c5fe" cx="1680.75" cy="-689.948" rx="112.38" ry="18"/>
<text text-anchor="middle" x="1680.75" y="-686.248" font-family="Arial" font-size="14.00" fill="#c6c5fe">Components/Mixer/index</text>
</g>
<!-- Components/Mixer/index&#45;&gt;Components/Mixer/Channel -->
<g id="edge8" class="edge"><title>Components/Mixer/index&#45;&gt;Components/Mixer/Channel</title>
<path fill="none" stroke="#757575" d="M1732.67,-673.885C1792.65,-655.331 1891.27,-624.819 1955.36,-604.99"/>
<polygon fill="#757575" stroke="#757575" points="1956.43,-608.324 1964.95,-602.024 1954.36,-601.636 1956.43,-608.324"/>
</g>
<!-- Components/Playlist/index -->
<g id="node13" class="node"><title>Components/Playlist/index</title>
<ellipse fill="none" stroke="#cfffac" cx="1008.55" cy="-960.278" rx="119.679" ry="18"/>
<text text-anchor="middle" x="1008.55" y="-956.578" font-family="Arial" font-size="14.00" fill="#cfffac">Components/Playlist/index</text>
</g>
<!-- Components/Tracks/Track -->
<g id="node14" class="node"><title>Components/Tracks/Track</title>
<ellipse fill="none" stroke="#c6c5fe" cx="119.589" cy="-668.129" rx="119.679" ry="18"/>
<text text-anchor="middle" x="119.589" y="-664.429" font-family="Arial" font-size="14.00" fill="#c6c5fe">Components/Tracks/Track</text>
</g>
<!-- Components/Tracks/types -->
<g id="node15" class="node"><title>Components/Tracks/types</title>
<ellipse fill="none" stroke="#cfffac" cx="246.151" cy="-430.184" rx="118.879" ry="18"/>
<text text-anchor="middle" x="246.151" y="-426.484" font-family="Arial" font-size="14.00" fill="#cfffac">Components/Tracks/types</text>
</g>
<!-- Components/Tracks/Track&#45;&gt;Components/Tracks/types -->
<g id="edge9" class="edge"><title>Components/Tracks/Track&#45;&gt;Components/Tracks/types</title>
<path fill="none" stroke="#757575" d="M129.31,-649.853C151.45,-608.228 205.72,-506.196 231.757,-457.245"/>
<polygon fill="#757575" stroke="#757575" points="234.964,-458.669 236.57,-448.197 228.784,-455.382 234.964,-458.669"/>
</g>
<!-- Components/Tracks/index -->
<g id="node16" class="node"><title>Components/Tracks/index</title>
<ellipse fill="none" stroke="#c6c5fe" cx="555.374" cy="-664.851" rx="118.079" ry="18"/>
<text text-anchor="middle" x="555.374" y="-661.151" font-family="Arial" font-size="14.00" fill="#c6c5fe">Components/Tracks/index</text>
</g>
<!-- Components/Tracks/index&#45;&gt;Components/Tracks/Track -->
<g id="edge10" class="edge"><title>Components/Tracks/index&#45;&gt;Components/Tracks/Track</title>
<path fill="none" stroke="#757575" d="M437.157,-665.74C379.138,-666.177 309.1,-666.704 249.578,-667.151"/>
<polygon fill="#757575" stroke="#757575" points="249.33,-663.653 239.357,-667.228 249.383,-670.653 249.33,-663.653"/>
</g>
<!-- Components/Tracks/index&#45;&gt;Components/Tracks/types -->
<g id="edge11" class="edge"><title>Components/Tracks/index&#45;&gt;Components/Tracks/types</title>
<path fill="none" stroke="#757575" d="M531.878,-647.02C476.957,-605.341 340.13,-501.504 277.883,-454.265"/>
<polygon fill="#757575" stroke="#757575" points="279.692,-451.245 269.611,-447.988 275.461,-456.821 279.692,-451.245"/>
</g>
<!-- Components/index -->
<g id="node17" class="node"><title>Components/index</title>
<ellipse fill="none" stroke="#c6c5fe" cx="1156.75" cy="-739.599" rx="88.2844" ry="18"/>
<text text-anchor="middle" x="1156.75" y="-735.899" font-family="Arial" font-size="14.00" fill="#c6c5fe">Components/index</text>
</g>
<!-- Components/index&#45;&gt;Components/Editor/index -->
<g id="edge12" class="edge"><title>Components/index&#45;&gt;Components/Editor/index</title>
<path fill="none" stroke="#757575" d="M1162.02,-721.384C1180.64,-657.051 1243.41,-440.195 1265.97,-362.232"/>
<polygon fill="#757575" stroke="#757575" points="1269.46,-362.762 1268.88,-352.183 1262.74,-360.816 1269.46,-362.762"/>
</g>
<!-- Components/index&#45;&gt;Components/FileBrowser/index -->
<g id="edge13" class="edge"><title>Components/index&#45;&gt;Components/FileBrowser/index</title>
<path fill="none" stroke="#757575" d="M1191.63,-756.241C1240.18,-779.408 1328.21,-821.417 1381.99,-847.079"/>
<polygon fill="#757575" stroke="#757575" points="1380.76,-850.369 1391.29,-851.517 1383.77,-844.052 1380.76,-850.369"/>
</g>
<!-- Components/index&#45;&gt;Components/Mixer/index -->
<g id="edge14" class="edge"><title>Components/index&#45;&gt;Components/Mixer/index</title>
<path fill="none" stroke="#757575" d="M1236.91,-732.004C1326.99,-723.468 1473.67,-709.57 1573.55,-700.106"/>
<polygon fill="#757575" stroke="#757575" points="1574.04,-703.575 1583.67,-699.147 1573.38,-696.606 1574.04,-703.575"/>
</g>
<!-- Components/index&#45;&gt;Components/Playlist/index -->
<g id="edge15" class="edge"><title>Components/index&#45;&gt;Components/Playlist/index</title>
<path fill="none" stroke="#757575" d="M1144.62,-757.658C1118.51,-796.549 1056.84,-888.374 1026.31,-933.834"/>
<polygon fill="#757575" stroke="#757575" points="1023.31,-932.026 1020.64,-942.279 1029.12,-935.928 1023.31,-932.026"/>
</g>
<!-- Components/index&#45;&gt;Components/Tracks/index -->
<g id="edge16" class="edge"><title>Components/index&#45;&gt;Components/Tracks/index</title>
<path fill="none" stroke="#757575" d="M1081.2,-730.208C973.88,-716.869 777.04,-692.403 657.017,-677.485"/>
<polygon fill="#757575" stroke="#757575" points="657.435,-674.01 647.08,-676.25 656.572,-680.956 657.435,-674.01"/>
</g>
<!-- Components/types -->
<g id="node18" class="node"><title>Components/types</title>
<ellipse fill="none" stroke="#cfffac" cx="1243.26" cy="-1169.07" rx="89.0842" ry="18"/>
<text text-anchor="middle" x="1243.26" y="-1165.37" font-family="Arial" font-size="14.00" fill="#cfffac">Components/types</text>
</g>
<!-- Components/index&#45;&gt;Components/types -->
<g id="edge17" class="edge"><title>Components/index&#45;&gt;Components/types</title>
<path fill="none" stroke="#757575" d="M1160.41,-757.778C1173.93,-824.856 1221.05,-1058.79 1237.52,-1140.58"/>
<polygon fill="#757575" stroke="#757575" points="1234.14,-1141.53 1239.55,-1150.65 1241.01,-1140.15 1234.14,-1141.53"/>
</g>
<!-- IO/WAV -->
<g id="node19" class="node"><title>IO/WAV</title>
<ellipse fill="none" stroke="#cfffac" cx="539.496" cy="-512" rx="45.4919" ry="18"/>
<text text-anchor="middle" x="539.496" y="-508.3" font-family="Arial" font-size="14.00" fill="#cfffac">IO/WAV</text>
</g>
<!-- IO/index -->
<g id="node20" class="node"><title>IO/index</title>
<ellipse fill="none" stroke="#cfffac" cx="577.496" cy="-1196" rx="45.4919" ry="18"/>
<text text-anchor="middle" x="577.496" y="-1192.3" font-family="Arial" font-size="14.00" fill="#cfffac">IO/index</text>
</g>
<!-- Plugins/index -->
<g id="node21" class="node"><title>Plugins/index</title>
<ellipse fill="none" stroke="#cfffac" cx="635.644" cy="-854" rx="65.7887" ry="18"/>
<text text-anchor="middle" x="635.644" y="-850.3" font-family="Arial" font-size="14.00" fill="#cfffac">Plugins/index</text>
</g>
<!-- Project/index -->
<g id="node22" class="node"><title>Project/index</title>
<ellipse fill="none" stroke="#cfffac" cx="748.344" cy="-94" rx="64.189" ry="18"/>
<text text-anchor="middle" x="748.344" y="-90.3" font-family="Arial" font-size="14.00" fill="#cfffac">Project/index</text>
</g>
<!-- _assets/json/forms/file_newProject -->
<g id="node23" class="node"><title>_assets/json/forms/file_newProject</title>
<ellipse fill="none" stroke="#cfffac" cx="1682.84" cy="-588" rx="155.173" ry="18"/>
<text text-anchor="middle" x="1682.84" y="-584.3" font-family="Arial" font-size="14.00" fill="#cfffac">_assets/json/forms/file_newProject</text>
</g>
<!-- _assets/json/forms/index -->
<g id="node24" class="node"><title>_assets/json/forms/index</title>
<ellipse fill="none" stroke="#c6c5fe" cx="1405.74" cy="-588" rx="113.98" ry="18"/>
<text text-anchor="middle" x="1405.74" y="-584.3" font-family="Arial" font-size="14.00" fill="#c6c5fe">_assets/json/forms/index</text>
</g>
<!-- _assets/json/forms/index&#45;&gt;_assets/json/forms/file_newProject -->
<g id="edge18" class="edge"><title>_assets/json/forms/index&#45;&gt;_assets/json/forms/file_newProject</title>
<path fill="none" stroke="#757575" d="M1519.65,-588C1519.81,-588 1519.97,-588 1520.12,-588"/>
<polygon fill="#757575" stroke="#757575" points="1517.29,-591.5 1527.29,-588 1517.29,-584.5 1517.29,-591.5"/>
</g>
<!-- _assets/plugins/oscillator/script -->
<g id="node25" class="node"><title>_assets/plugins/oscillator/script</title>
<ellipse fill="none" stroke="#cfffac" cx="1583.09" cy="-284" rx="139.175" ry="18"/>
<text text-anchor="middle" x="1583.09" y="-280.3" font-family="Arial" font-size="14.00" fill="#cfffac">_assets/plugins/oscillator/script</text>
</g>
<!-- _assets/tpl/popups/help_about -->
<g id="node26" class="node"><title>_assets/tpl/popups/help_about</title>
<ellipse fill="none" stroke="#cfffac" cx="1703.29" cy="-436" rx="137.576" ry="18"/>
<text text-anchor="middle" x="1703.29" y="-432.3" font-family="Arial" font-size="14.00" fill="#cfffac">_assets/tpl/popups/help_about</text>
</g>
<!-- _assets/tpl/popups/index -->
<g id="node27" class="node"><title>_assets/tpl/popups/index</title>
<ellipse fill="none" stroke="#c6c5fe" cx="1443.74" cy="-436" rx="113.98" ry="18"/>
<text text-anchor="middle" x="1443.74" y="-432.3" font-family="Arial" font-size="14.00" fill="#c6c5fe">_assets/tpl/popups/index</text>
</g>
<!-- _assets/tpl/popups/index&#45;&gt;_assets/tpl/popups/help_about -->
<g id="edge19" class="edge"><title>_assets/tpl/popups/index&#45;&gt;_assets/tpl/popups/help_about</title>
<path fill="none" stroke="#757575" d="M1557.58,-436C1557.75,-436 1557.91,-436 1558.07,-436"/>
<polygon fill="#757575" stroke="#757575" points="1555.37,-439.5 1565.37,-436 1555.37,-432.5 1555.37,-439.5"/>
</g>
<!-- _lib/Event -->
<g id="node28" class="node"><title>_lib/Event</title>
<ellipse fill="none" stroke="#cfffac" cx="583.345" cy="-94" rx="51.1914" ry="18"/>
<text text-anchor="middle" x="583.345" y="-90.3" font-family="Arial" font-size="14.00" fill="#cfffac">_lib/Event</text>
</g>
<!-- _lib/Form -->
<g id="node29" class="node"><title>_lib/Form</title>
<ellipse fill="none" stroke="#cfffac" cx="582.046" cy="-398" rx="50.0912" ry="18"/>
<text text-anchor="middle" x="582.046" y="-394.3" font-family="Arial" font-size="14.00" fill="#cfffac">_lib/Form</text>
</g>
<!-- _lib/Input -->
<g id="node30" class="node"><title>_lib/Input</title>
<ellipse fill="none" stroke="#cfffac" cx="1530.1" cy="-1196" rx="48.1917" ry="18"/>
<text text-anchor="middle" x="1530.1" y="-1192.3" font-family="Arial" font-size="14.00" fill="#cfffac">_lib/Input</text>
</g>
<!-- _lib/MVC/Controller -->
<g id="node31" class="node"><title>_lib/MVC/Controller</title>
<ellipse fill="none" stroke="#cfffac" cx="774.992" cy="-398" rx="90.9839" ry="18"/>
<text text-anchor="middle" x="774.992" y="-394.3" font-family="Arial" font-size="14.00" fill="#cfffac">_lib/MVC/Controller</text>
</g>
<!-- _lib/MVC/Model -->
<g id="node32" class="node"><title>_lib/MVC/Model</title>
<ellipse fill="none" stroke="#cfffac" cx="1634.04" cy="-778" rx="76.0865" ry="18"/>
<text text-anchor="middle" x="1634.04" y="-774.3" font-family="Arial" font-size="14.00" fill="#cfffac">_lib/MVC/Model</text>
</g>
<!-- _lib/MVC/View -->
<g id="node33" class="node"><title>_lib/MVC/View</title>
<ellipse fill="none" stroke="#cfffac" cx="1400.84" cy="-1082" rx="70.6878" ry="18"/>
<text text-anchor="middle" x="1400.84" y="-1078.3" font-family="Arial" font-size="14.00" fill="#cfffac">_lib/MVC/View</text>
</g>
<!-- _lib/MVC/index -->
<g id="node34" class="node"><title>_lib/MVC/index</title>
<ellipse fill="none" stroke="#cfffac" cx="1060.79" cy="-208" rx="72.5877" ry="18"/>
<text text-anchor="middle" x="1060.79" y="-204.3" font-family="Arial" font-size="14.00" fill="#cfffac">_lib/MVC/index</text>
</g>
<!-- _lib/ProxyRecursive -->
<g id="node35" class="node"><title>_lib/ProxyRecursive</title>
<ellipse fill="none" stroke="#cfffac" cx="738.942" cy="-512" rx="92.8835" ry="18"/>
<text text-anchor="middle" x="738.942" y="-508.3" font-family="Arial" font-size="14.00" fill="#cfffac">_lib/ProxyRecursive</text>
</g>
<!-- _lib/Utils -->
<g id="node36" class="node"><title>_lib/Utils</title>
<ellipse fill="none" stroke="#cfffac" cx="1679.5" cy="-1196" rx="45.4919" ry="18"/>
<text text-anchor="middle" x="1679.5" y="-1192.3" font-family="Arial" font-size="14.00" fill="#cfffac">_lib/Utils</text>
</g>
<!-- _lib/external/cjs/vdom&#45;virtualize -->
<g id="node37" class="node"><title>_lib/external/cjs/vdom&#45;virtualize</title>
<ellipse fill="none" stroke="#cfffac" cx="783.788" cy="-208" rx="137.576" ry="18"/>
<text text-anchor="middle" x="783.788" y="-204.3" font-family="Arial" font-size="14.00" fill="#cfffac">_lib/external/cjs/vdom&#45;virtualize</text>
</g>
<!-- _lib/external/cjs/virtual&#45;dom -->
<g id="node38" class="node"><title>_lib/external/cjs/virtual&#45;dom</title>
<ellipse fill="none" stroke="#cfffac" cx="1641.54" cy="-1082" rx="121.578" ry="18"/>
<text text-anchor="middle" x="1641.54" y="-1078.3" font-family="Arial" font-size="14.00" fill="#cfffac">_lib/external/cjs/virtual&#45;dom</text>
</g>
<!-- _lib/external/cjs/zipjs/extra/deflate -->
<g id="node39" class="node"><title>_lib/external/cjs/zipjs/extra/deflate</title>
<ellipse fill="none" stroke="#cfffac" cx="865.331" cy="-1478.18" rx="148.374" ry="18"/>
<text text-anchor="middle" x="865.331" y="-1474.48" font-family="Arial" font-size="14.00" fill="#cfffac">_lib/external/cjs/zipjs/extra/deflate</text>
</g>
<!-- _lib/external/cjs/zipjs/extra/inflate -->
<g id="node40" class="node"><title>_lib/external/cjs/zipjs/extra/inflate</title>
<ellipse fill="none" stroke="#cfffac" cx="1240.47" cy="-1262" rx="144.075" ry="18"/>
<text text-anchor="middle" x="1240.47" y="-1258.3" font-family="Arial" font-size="14.00" fill="#cfffac">_lib/external/cjs/zipjs/extra/inflate</text>
</g>
<!-- _lib/external/cjs/zipjs/extra/z&#45;worker -->
<g id="node41" class="node"><title>_lib/external/cjs/zipjs/extra/z&#45;worker</title>
<ellipse fill="none" stroke="#cfffac" cx="1042.55" cy="-1082" rx="154.873" ry="18"/>
<text text-anchor="middle" x="1042.55" y="-1078.3" font-family="Arial" font-size="14.00" fill="#cfffac">_lib/external/cjs/zipjs/extra/z&#45;worker</text>
</g>
<!-- _lib/external/cjs/zipjs/index -->
<g id="node42" class="node"><title>_lib/external/cjs/zipjs/index</title>
<ellipse fill="none" stroke="#c6c5fe" cx="1016.63" cy="-1308.49" rx="119.679" ry="18"/>
<text text-anchor="middle" x="1016.63" y="-1304.79" font-family="Arial" font-size="14.00" fill="#c6c5fe">_lib/external/cjs/zipjs/index</text>
</g>
<!-- _lib/external/cjs/zipjs/index&#45;&gt;_lib/external/cjs/zipjs/extra/deflate -->
<g id="edge20" class="edge"><title>_lib/external/cjs/zipjs/index&#45;&gt;_lib/external/cjs/zipjs/extra/deflate</title>
<path fill="none" stroke="#757575" d="M1000.44,-1326.65C973.481,-1356.89 919.304,-1417.65 888.371,-1452.34"/>
<polygon fill="#757575" stroke="#757575" points="885.449,-1450.36 881.406,-1460.15 890.674,-1455.01 885.449,-1450.36"/>
</g>
<!-- _lib/external/cjs/zipjs/index&#45;&gt;_lib/external/cjs/zipjs/extra/inflate -->
<g id="edge21" class="edge"><title>_lib/external/cjs/zipjs/index&#45;&gt;_lib/external/cjs/zipjs/extra/inflate</title>
<path fill="none" stroke="#757575" d="M1086.84,-1293.91C1108.73,-1289.36 1133.1,-1284.3 1155.87,-1279.57"/>
<polygon fill="#757575" stroke="#757575" points="1156.78,-1282.96 1165.86,-1277.49 1155.36,-1276.1 1156.78,-1282.96"/>
</g>
<!-- _lib/external/cjs/zipjs/index&#45;&gt;_lib/external/cjs/zipjs/extra/z&#45;worker -->
<g id="edge22" class="edge"><title>_lib/external/cjs/zipjs/index&#45;&gt;_lib/external/cjs/zipjs/extra/z&#45;worker</title>
<path fill="none" stroke="#757575" d="M1018.71,-1290.34C1023.21,-1251 1033.9,-1157.61 1039.3,-1110.39"/>
<polygon fill="#757575" stroke="#757575" points="1042.81,-1110.57 1040.47,-1100.24 1035.85,-1109.78 1042.81,-1110.57"/>
</g>
<!-- _lib/external/cjs/zipjs/zip -->
<g id="node43" class="node"><title>_lib/external/cjs/zipjs/zip</title>
<ellipse fill="none" stroke="#cfffac" cx="1130.73" cy="-1505.49" rx="109.381" ry="18"/>
<text text-anchor="middle" x="1130.73" y="-1501.79" font-family="Arial" font-size="14.00" fill="#cfffac">_lib/external/cjs/zipjs/zip</text>
</g>
<!-- _lib/external/cjs/zipjs/index&#45;&gt;_lib/external/cjs/zipjs/zip -->
<g id="edge23" class="edge"><title>_lib/external/cjs/zipjs/index&#45;&gt;_lib/external/cjs/zipjs/zip</title>
<path fill="none" stroke="#757575" d="M1027.16,-1326.67C1047.33,-1361.49 1091.49,-1437.73 1115.11,-1478.51"/>
<polygon fill="#757575" stroke="#757575" points="1112.19,-1480.45 1120.23,-1487.35 1118.25,-1476.94 1112.19,-1480.45"/>
</g>
<!-- _lib/external/cjs/zipjs/zip&#45;ext -->
<g id="node44" class="node"><title>_lib/external/cjs/zipjs/zip&#45;ext</title>
<ellipse fill="none" stroke="#cfffac" cx="808.139" cy="-1215.09" rx="124.278" ry="18"/>
<text text-anchor="middle" x="808.139" y="-1211.39" font-family="Arial" font-size="14.00" fill="#cfffac">_lib/external/cjs/zipjs/zip&#45;ext</text>
</g>
<!-- _lib/external/cjs/zipjs/index&#45;&gt;_lib/external/cjs/zipjs/zip&#45;ext -->
<g id="edge24" class="edge"><title>_lib/external/cjs/zipjs/index&#45;&gt;_lib/external/cjs/zipjs/zip&#45;ext</title>
<path fill="none" stroke="#757575" d="M978.392,-1291.36C943.82,-1275.87 892.796,-1253.01 855.624,-1236.36"/>
<polygon fill="#757575" stroke="#757575" points="857.047,-1233.16 846.49,-1232.27 854.185,-1239.55 857.047,-1233.16"/>
</g>
<!-- _lib/external/jquery/jquery -->
<g id="node45" class="node"><title>_lib/external/jquery/jquery</title>
<ellipse fill="none" stroke="#cfffac" cx="722.39" cy="-1082" rx="114.28" ry="18"/>
<text text-anchor="middle" x="722.39" y="-1078.3" font-family="Arial" font-size="14.00" fill="#cfffac">_lib/external/jquery/jquery</text>
</g>
<!-- _lib/external/jquery/jquery&#45;ui -->
<g id="node46" class="node"><title>_lib/external/jquery/jquery&#45;ui</title>
<ellipse fill="none" stroke="#cfffac" cx="732.139" cy="-968" rx="124.278" ry="18"/>
<text text-anchor="middle" x="732.139" y="-964.3" font-family="Arial" font-size="14.00" fill="#cfffac">_lib/external/jquery/jquery&#45;ui</text>
</g>
<!-- _lib/external/jquery/jquery.knob -->
<g id="node47" class="node"><title>_lib/external/jquery/jquery.knob</title>
<ellipse fill="none" stroke="#cfffac" cx="897.138" cy="-854" rx="137.276" ry="18"/>
<text text-anchor="middle" x="897.138" y="-850.3" font-family="Arial" font-size="14.00" fill="#cfffac">_lib/external/jquery/jquery.knob</text>
</g>
<!-- _lib/external/jquery/jquery.observe -->
<g id="node48" class="node"><title>_lib/external/jquery/jquery.observe</title>
<ellipse fill="none" stroke="#cfffac" cx="986.787" cy="-626" rx="150.574" ry="18"/>
<text text-anchor="middle" x="986.787" y="-622.3" font-family="Arial" font-size="14.00" fill="#cfffac">_lib/external/jquery/jquery.observe</text>
</g>
<!-- _lib/external/jquery/jquery.simplescroll -->
<g id="node49" class="node"><title>_lib/external/jquery/jquery.simplescroll</title>
<ellipse fill="none" stroke="#cfffac" cx="1078.39" cy="-474" rx="166.271" ry="18"/>
<text text-anchor="middle" x="1078.39" y="-470.3" font-family="Arial" font-size="14.00" fill="#cfffac">_lib/external/jquery/jquery.simplescroll</text>
</g>
<!-- index -->
<g id="node50" class="node"><title>index</title>
<ellipse fill="none" stroke="#cfffac" cx="754.497" cy="-626" rx="32.4942" ry="18"/>
<text text-anchor="middle" x="754.497" y="-622.3" font-family="Arial" font-size="14.00" fill="#cfffac">index</text>
</g>
</g>
</svg>
